<?xml version="1.0" encoding="UTF-8"?>
<svg width="502px" height="111px" viewBox="0 0 502 111" version="1.1"
    xmlns="http://www.w3.org/2000/svg" xmlns:xlink="http://www.w3.org/1999/xlink">
    <title>logo</title>
    <g id="logo" stroke="none" fill="none" fill-rule="evenodd" stroke-width="1">
        <g id="InertiaNode" transform="translate(17, 11)" fill="#FFFFFF">
            <polygon id="Path" fill-rule="nonzero"
                points="1.51171875 70 10.3710938 19.5859375 20.3203125 19.5859375 11.4609375 70"></polygon>
            <path
                d="M20.3554688,70 L26.6835938,34 L35.9648438,34 L35.2617188,37.9023438 C36.6445312,36.3085938 38.3144531,35.0898438 40.2714844,34.2460938 C42.2285156,33.4023438 44.2734375,32.9804688 46.40625,32.9804688 C50.4375,33.0039062 53.5546875,34.3515625 55.7578125,37.0234375 C57.375,38.9921875 58.1835938,41.4648438 58.1835938,44.4414062 C58.1835938,45.5195312 58.078125,46.6679688 57.8671875,47.8867188 L53.9648438,70 L44.6835938,70 L48.3398438,49.046875 C48.4570312,48.34375 48.515625,47.6992188 48.515625,47.1132812 C48.515625,45.5898438 48.140625,44.3828125 47.390625,43.4921875 C46.3359375,42.2265625 44.71875,41.6054688 42.5390625,41.6289062 C40.3359375,41.6289062 38.3964844,42.2734375 36.7207031,43.5625 C35.0449219,44.8515625 33.8789062,46.796875 33.2226562,49.3984375 L29.6367188,70 L20.3554688,70 Z"
                id="Path" fill-rule="nonzero"></path>
            <path
                d="M63.1757812,51.296875 C63.9960938,46.0703125 66.4394531,41.7109375 70.5058594,38.21875 C74.5722656,34.7265625 79.2773438,32.9804688 84.6210938,32.9804688 C88.1132812,32.9804688 91.171875,33.8125 93.796875,35.4765625 C96.4453125,37.1640625 98.3554688,39.4609375 99.5273438,42.3671875 C100.277344,44.2421875 100.652344,46.234375 100.652344,48.34375 C100.652344,49.515625 100.535156,50.734375 100.300781,52 C100.207031,53.0546875 99.8789062,54.3320312 99.3164062,55.8320312 L72.1054688,55.8320312 C72.3164062,58.1523438 73.2011719,59.8574219 74.7597656,60.9472656 C76.3183594,62.0371094 78.3046875,62.5820312 80.71875,62.5820312 C84.328125,62.5820312 87.28125,61.3632812 89.578125,58.9257812 L96.1523438,64.1640625 C92.0742188,68.734375 86.6953125,71.0195312 80.015625,71.0195312 C76.0546875,71.0195312 72.6796875,70.1289062 69.890625,68.3476562 C67.1015625,66.5664062 65.1328125,64.1875 63.984375,61.2109375 C63.234375,59.265625 62.859375,57.1796875 62.859375,54.953125 C62.859375,53.78125 62.9648438,52.5625 63.1757812,51.296875 Z M73.3710938,48.5546875 L91.6875,48.5546875 C91.6171875,46.1171875 90.8789062,44.3066406 89.4726562,43.1230469 C88.0664062,41.9394531 86.2617188,41.3476562 84.0585938,41.3476562 C81.6679688,41.3476562 79.5410156,41.9804688 77.6777344,43.2460938 C75.8144531,44.5117188 74.3789062,46.28125 73.3710938,48.5546875 Z"
                id="Shape" fill-rule="nonzero"></path>
            <path
                d="M103.394531,70 L109.722656,34 L119.003906,34 L117.984375,39.765625 C119.296875,37.5625 121.019531,35.921875 123.152344,34.84375 C125.191406,33.8125 127.40625,33.296875 129.796875,33.296875 C129.890625,33.296875 129.996094,33.296875 130.113281,33.296875 L128.285156,43.6328125 C127.816406,43.5859375 127.341797,43.5625 126.861328,43.5625 C126.380859,43.5625 125.90625,43.5859375 125.4375,43.6328125 C124.453125,43.7265625 123.439453,43.9726562 122.396484,44.3710938 C121.353516,44.7695312 120.404297,45.296875 119.548828,45.953125 C118.693359,46.609375 117.919922,47.4941406 117.228516,48.6074219 C116.537109,49.7207031 116.050781,50.9921875 115.769531,52.421875 L112.675781,70 L103.394531,70 Z"
                id="Path" fill-rule="nonzero"></path>
            <path
                d="M131.835938,42.9296875 L133.417969,34 L139.605469,34 L140.90625,26.7226562 L150.679688,23.9101562 L148.886719,34 L157.113281,34 L155.460938,42.9296875 L147.375,42.9296875 L144.703125,57.90625 C144.632812,58.3046875 144.597656,58.6679688 144.597656,58.9960938 C144.597656,59.7460938 144.785156,60.3203125 145.160156,60.71875 C145.699219,61.3046875 146.566406,61.6210938 147.761719,61.6679688 C148.113281,61.6914062 148.476562,61.6914062 148.851562,61.6679688 C149.8125,61.6679688 150.925781,61.6328125 152.191406,61.5625 L150.75,70 C149.109375,70.1875 147.609375,70.28125 146.25,70.28125 C142.5,70.28125 139.710938,69.5664062 137.882812,68.1367188 C136.007812,66.6835938 135.082031,64.421875 135.105469,61.3515625 C135.105469,60.296875 135.210938,59.1484375 135.421875,57.90625 L138.09375,42.9296875 L131.835938,42.9296875 Z"
                id="Path" fill-rule="nonzero"></path>
            <path
                d="M157.324219,70 L163.652344,34 L172.933594,34 L166.605469,70 L157.324219,70 Z M164.355469,23.9804688 C164.613281,22.4101562 165.386719,21.0566406 166.675781,19.9199219 C167.964844,18.7832031 169.40625,18.2148438 171,18.2148438 C172.59375,18.2148438 173.859375,18.7890625 174.796875,19.9375 C175.546875,20.8515625 175.921875,21.8828125 175.921875,23.03125 C175.921875,23.3359375 175.886719,23.6523438 175.816406,23.9804688 C175.535156,25.5507812 174.75,26.8925781 173.460938,28.0058594 C172.171875,29.1191406 170.730469,29.6757812 169.136719,29.6757812 C167.566406,29.6757812 166.3125,29.1132812 165.375,27.9882812 C164.648438,27.0976562 164.285156,26.0898438 164.285156,24.9648438 C164.285156,24.6367188 164.308594,24.3085938 164.355469,23.9804688 Z"
                id="Shape" fill-rule="nonzero"></path>
            <path
                d="M176.167969,56.078125 C176.144531,55.65625 176.132812,55.2460938 176.132812,54.8476562 C176.132812,53.6054688 176.261719,52.3632812 176.519531,51.1210938 C177.105469,47.7929688 178.306641,44.7636719 180.123047,42.0332031 C181.939453,39.3027344 184.3125,37.1113281 187.242188,35.4589844 C190.171875,33.8066406 193.359375,32.9804688 196.804688,32.9804688 C199.335938,32.9804688 201.544922,33.4902344 203.431641,34.5097656 C205.318359,35.5292969 206.8125,36.9648438 207.914062,38.8164062 L208.757812,34 L218.039062,34 L211.710938,70 L202.429688,70 L202.992188,66.6953125 C199.898438,69.578125 195.914062,71.0195312 191.039062,71.0195312 C189.1875,71.0195312 187.470703,70.7617188 185.888672,70.2460938 C184.306641,69.7304688 182.953125,69.0097656 181.828125,68.0839844 C180.703125,67.1582031 179.707031,66.0683594 178.839844,64.8144531 C177.972656,63.5605469 177.339844,62.2011719 176.941406,60.7363281 C176.542969,59.2714844 176.285156,57.71875 176.167969,56.078125 Z M185.800781,51.9296875 C185.660156,52.703125 185.589844,53.453125 185.589844,54.1796875 C185.589844,56.1953125 186.152344,57.90625 187.277344,59.3125 C188.800781,61.234375 191.015625,62.1835938 193.921875,62.1601562 C196.710938,62.1601562 199.177734,61.2753906 201.322266,59.5058594 C203.466797,57.7363281 204.867188,55.421875 205.523438,52.5625 L205.664062,51.4375 C205.734375,50.8515625 205.769531,50.3007812 205.769531,49.7851562 C205.769531,47.6523438 205.136719,45.8828125 203.871094,44.4765625 C202.277344,42.7421875 200.097656,41.8632812 197.332031,41.8398438 C194.496094,41.8398438 192,42.7421875 189.84375,44.546875 C187.6875,46.3515625 186.339844,48.8125 185.800781,51.9296875 Z"
                id="Shape" fill-rule="nonzero"></path>
            <polygon id="Path" fill-rule="nonzero"
                points="220.640625 70 229.5 19.5859375 236.988281 19.5859375 253.195312 51.0507812 258.644531 19.5859375 268.59375 19.5859375 259.734375 70 252.246094 70 236.109375 38.5351562 230.589844 70"></polygon>
            <path
                d="M269.929688,56.921875 C269.882812,56.265625 269.859375,55.609375 269.859375,54.953125 C269.859375,53.6171875 269.964844,52.2460938 270.175781,50.8398438 C271.160156,45.6835938 273.638672,41.4179688 277.611328,38.0429688 C281.583984,34.6679688 286.347656,32.9804688 291.902344,32.9804688 C294.691406,32.9804688 297.216797,33.5429688 299.478516,34.6679688 C301.740234,35.7929688 303.550781,37.28125 304.910156,39.1328125 C306.246094,41.0078125 307.183594,43.140625 307.722656,45.53125 C308.003906,46.8203125 308.144531,48.1210938 308.144531,49.4335938 C308.144531,50.5820312 308.039062,51.7539062 307.828125,52.9492188 C306.960938,58.0585938 304.505859,62.3476562 300.462891,65.8164062 C296.419922,69.2851562 291.796875,71.0195312 286.59375,71.0195312 C284.203125,71.0195312 281.994141,70.6503906 279.966797,69.9121094 C277.939453,69.1738281 276.257812,68.171875 274.921875,66.90625 C273.585938,65.640625 272.460938,64.1464844 271.546875,62.4238281 C270.632812,60.7011719 270.09375,58.8671875 269.929688,56.921875 Z M279.457031,52 C279.316406,52.796875 279.246094,53.5585938 279.246094,54.2851562 C279.246094,56.2773438 279.796875,57.9296875 280.898438,59.2421875 C282.398438,61.046875 284.507812,61.9492188 287.226562,61.9492188 C289.96875,61.9492188 292.429688,61.0351562 294.609375,59.2070312 C296.789062,57.3789062 298.125,54.953125 298.617188,51.9296875 C298.757812,51.1328125 298.828125,50.3828125 298.828125,49.6796875 C298.828125,47.734375 298.265625,46.09375 297.140625,44.7578125 C295.59375,42.953125 293.460938,42.0507812 290.742188,42.0507812 C288.023438,42.0507812 285.603516,42.953125 283.482422,44.7578125 C281.361328,46.5625 280.019531,48.9765625 279.457031,52 Z"
                id="Shape" fill-rule="nonzero"></path>
            <path
                d="M312.503906,56.078125 C312.480469,55.65625 312.46875,55.2460938 312.46875,54.8476562 C312.46875,53.6054688 312.597656,52.3632812 312.855469,51.1210938 C313.441406,47.7929688 314.642578,44.7636719 316.458984,42.0332031 C318.275391,39.3027344 320.648438,37.1113281 323.578125,35.4589844 C326.507812,33.8066406 329.695312,32.9804688 333.140625,32.9804688 C338.34375,32.9804688 342.09375,34.9726562 344.390625,38.9570312 L347.765625,19.5859375 L357.046875,19.5859375 L348.1875,70 L338.90625,70 L339.46875,66.5546875 C336.351562,69.53125 332.320312,71.0195312 327.375,71.0195312 C325.523438,71.0195312 323.806641,70.7617188 322.224609,70.2460938 C320.642578,69.7304688 319.289062,69.0097656 318.164062,68.0839844 C317.039062,67.1582031 316.042969,66.0683594 315.175781,64.8144531 C314.308594,63.5605469 313.675781,62.2011719 313.277344,60.7363281 C312.878906,59.2714844 312.621094,57.71875 312.503906,56.078125 Z M322.136719,51.9296875 C321.996094,52.703125 321.925781,53.4414062 321.925781,54.1445312 C321.925781,56.1835938 322.5,57.90625 323.648438,59.3125 C325.195312,61.234375 327.421875,62.1894531 330.328125,62.1778409 C333.234375,62.1660156 335.777344,61.2285156 337.957031,59.3652344 C340.136719,57.5019531 341.484375,55.0703125 342,52.0703125 C342.140625,51.25 342.210938,50.4765625 342.210938,49.75 C342.234375,47.6875 341.660156,45.9765625 340.488281,44.6171875 C338.894531,42.765625 336.667969,41.8398438 333.808594,41.8398438 C330.972656,41.8398438 328.453125,42.7480469 326.25,44.5644531 C324.046875,46.3808594 322.675781,48.8359375 322.136719,51.9296875 Z"
                id="Shape" fill-rule="nonzero"></path>
            <path
                d="M358.066406,51.296875 C358.886719,46.0703125 361.330078,41.7109375 365.396484,38.21875 C369.462891,34.7265625 374.167969,32.9804688 379.511719,32.9804688 C383.003906,32.9804688 386.0625,33.8125 388.6875,35.4765625 C391.335938,37.1640625 393.246094,39.4609375 394.417969,42.3671875 C395.167969,44.2421875 395.542969,46.234375 395.542969,48.34375 C395.542969,49.515625 395.425781,50.734375 395.191406,52 C395.097656,53.0546875 394.769531,54.3320312 394.207031,55.8320312 L366.996094,55.8320312 C367.207031,58.1523438 368.091797,59.8574219 369.650391,60.9472656 C371.208984,62.0371094 373.195312,62.5820312 375.609375,62.5820312 C379.21875,62.5820312 382.171875,61.3632812 384.46875,58.9257812 L391.042969,64.1640625 C386.964844,68.734375 381.585938,71.0195312 374.90625,71.0195312 C370.945312,71.0195312 367.570312,70.1289062 364.78125,68.3476562 C361.992188,66.5664062 360.023438,64.1875 358.875,61.2109375 C358.125,59.265625 357.75,57.1796875 357.75,54.953125 C357.75,53.78125 357.855469,52.5625 358.066406,51.296875 Z M368.261719,48.5546875 L386.578125,48.5546875 C386.507812,46.1171875 385.769531,44.3066406 384.363281,43.1230469 C382.957031,41.9394531 381.152344,41.3476562 378.949219,41.3476562 C376.558594,41.3476562 374.431641,41.9804688 372.568359,43.2460938 C370.705078,44.5117188 369.269531,46.28125 368.261719,48.5546875 Z"
                id="Shape" fill-rule="nonzero"></path>
        </g>
        <g id="Group" transform="translate(415, 47)" fill="#FFFFFF">
            <polygon id="Path" fill-rule="nonzero"
                points="17.8287561 0 0 0 17.2277868 17 0 34 17.8287561 34 35.0565428 17"></polygon>
            <polygon id="Path" fill-rule="nonzero"
                points="44.7722132 0 26.9434572 0 44.1712439 17 26.9434572 34 44.7722132 34 62 17"></polygon>
        </g>
    </g>
</svg>
